<svg id="Capa_1" data-name="Capa 1" xmlns="http://www.w3.org/2000/svg" viewBox="0 0 293.27 262.14"><defs><style>.cls-1{fill:#706f6f;}.cls-2{fill:#dadada;}.cls-3{fill:#f39200;}</style></defs><title>logo-2</title><polygon class="cls-1" points="108.39 182.15 145.27 201.04 138.37 249.92 102.69 226.08 108.39 182.15"/><polygon class="cls-2" points="149.92 195.8 182.9 174.66 146.47 156.97 110.79 176.16 149.92 195.8"/><polygon class="cls-3" points="151.42 202.54 144.37 250.07 173.91 229.23 184.55 180.95 151.42 202.54"/><polygon class="cls-1" points="51.08 137.08 87.39 133.84 105.18 173.44 67.45 172.44 51.08 137.08"/><polygon class="cls-2" points="88.38 127.75 103.01 96.55 67.6 100.48 50.05 131.5 88.38 127.75"/><polygon class="cls-3" points="92.66 132.07 109.71 170.74 121.91 141.38 107.19 100.46 92.66 132.07"/><polygon class="cls-1" points="89.49 40.35 104.38 60.52 87.47 85.14 74.56 62.61 89.49 40.35"/><polygon class="cls-2" points="108.31 58.93 131.87 56.37 116.9 36.97 92.4 37.75 108.31 58.93"/><polygon class="cls-3" points="107.3 62.99 90.68 86.84 112.29 83.51 131.07 60.22 107.3 62.99"/><polygon class="cls-1" points="148.05 16.62 161.79 35.23 146.19 57.94 134.29 37.15 148.05 16.62"/><polygon class="cls-2" points="165.42 33.76 187.16 31.39 173.35 13.49 150.74 14.21 165.42 33.76"/><polygon class="cls-3" points="164.49 37.5 149.15 59.5 169.09 56.43 186.41 34.95 164.49 37.5"/><polygon class="cls-2" points="179.95 52.02 198.02 53.56 208.56 34.09 190.49 32.75 179.95 52.02"/><polygon class="cls-1" points="180.15 54.44 198.28 55.98 206.01 68.07 187.27 65.79 180.15 54.44"/><polygon class="cls-3" points="199.96 54.64 207.62 66.79 217.62 46.72 210.3 35.3 199.96 54.64"/><polygon class="cls-3" points="225.88 61.69 224.47 73.71 233.54 84.32 235.28 73.24 225.88 61.69"/><polygon class="cls-2" points="208.63 69.28 207.08 80.22 222.59 72.84 224.07 61.76 208.63 69.28"/><polygon class="cls-1" points="207.62 81.77 223 75.05 232.53 85.66 217.42 91.98 207.62 81.77"/></svg>