<svg id="Capa_1" data-name="Capa 1" xmlns="http://www.w3.org/2000/svg" viewBox="0 0 292.99 81.6"><defs><style>.cls-1{fill:#706f6f;}.cls-2{fill:#dadada;}.cls-3{fill:#f39200;}.cls-4{font-size:37px;fill:#fff;font-family:FranklinGothicCondensed, Franklin Gothic;letter-spacing:0em;}</style></defs><title>logo-1-light</title><polygon class="cls-1" points="37.57 44.07 44.37 47.56 43.09 56.57 36.52 52.17 37.57 44.07"/><polygon class="cls-2" points="45.22 46.59 51.31 42.69 44.59 39.43 38.01 42.97 45.22 46.59"/><polygon class="cls-3" points="45.5 47.83 44.2 56.6 49.65 52.76 51.61 43.85 45.5 47.83"/><polygon class="cls-1" points="27 35.76 33.69 35.16 36.97 42.47 30.02 42.28 27 35.76"/><polygon class="cls-2" points="33.88 34.04 36.57 28.29 30.04 29.01 26.81 34.73 33.88 34.04"/><polygon class="cls-3" points="34.67 34.84 37.81 41.97 40.06 36.55 37.34 29.01 34.67 34.84"/><polygon class="cls-1" points="34.08 17.92 36.83 21.64 33.71 26.18 31.33 22.03 34.08 17.92"/><polygon class="cls-2" points="37.55 21.35 41.9 20.88 39.14 17.3 34.62 17.44 37.55 21.35"/><polygon class="cls-3" points="37.37 22.1 34.3 26.5 38.29 25.88 41.75 21.59 37.37 22.1"/><polygon class="cls-1" points="44.88 13.55 47.41 16.98 44.54 21.17 42.34 17.33 44.88 13.55"/><polygon class="cls-2" points="48.08 16.71 52.09 16.27 49.55 12.97 45.38 13.1 48.08 16.71"/><polygon class="cls-3" points="47.91 17.4 45.08 21.45 48.76 20.89 51.95 16.93 47.91 17.4"/><polygon class="cls-2" points="50.76 20.08 54.09 20.36 56.04 16.77 52.71 16.52 50.76 20.08"/><polygon class="cls-1" points="50.8 20.52 54.14 20.81 55.57 23.04 52.11 22.61 50.8 20.52"/><polygon class="cls-3" points="54.45 20.56 55.87 22.8 57.71 19.1 56.36 16.99 54.45 20.56"/><polygon class="cls-3" points="59.23 21.86 58.97 24.07 60.65 26.03 60.97 23.99 59.23 21.86"/><polygon class="cls-2" points="56.05 23.26 55.77 25.28 58.63 23.91 58.9 21.87 56.05 23.26"/><polygon class="cls-1" points="55.87 25.56 58.7 24.32 60.46 26.28 57.67 27.44 55.87 25.56"/><text class="cls-4" transform="translate(55.97 57.15)">AWS CAPITAL</text></svg>