<svg id="Capa_1" data-name="Capa 1" xmlns="http://www.w3.org/2000/svg" viewBox="0 0 292.99 81.6"><defs><style>.cls-1{fill:#706f6f;}.cls-2{fill:#dadada;}.cls-3{fill:#f39200;}.cls-4{font-size:37px;fill:#575756;font-family:FranklinGothicCondensed, Franklin Gothic;letter-spacing:0em;}</style></defs><title>logo-1</title><polygon class="cls-1" points="39.1 41.32 45.91 44.8 44.63 53.82 38.05 49.42 39.1 41.32"/><polygon class="cls-2" points="46.76 43.84 52.84 39.94 46.13 36.67 39.55 40.21 46.76 43.84"/><polygon class="cls-3" points="47.04 45.08 45.74 53.84 51.19 50 53.15 41.1 47.04 45.08"/><polygon class="cls-1" points="28.54 33.01 35.23 32.41 38.51 39.71 31.55 39.53 28.54 33.01"/><polygon class="cls-2" points="35.41 31.29 38.11 25.53 31.58 26.26 28.35 31.98 35.41 31.29"/><polygon class="cls-3" points="36.2 32.08 39.35 39.21 41.6 33.8 38.88 26.25 36.2 32.08"/><polygon class="cls-1" points="35.62 15.17 38.36 18.89 35.25 23.43 32.87 19.27 35.62 15.17"/><polygon class="cls-2" points="39.09 18.6 43.44 18.12 40.67 14.55 36.16 14.69 39.09 18.6"/><polygon class="cls-3" points="38.9 19.34 35.84 23.74 39.82 23.13 43.29 18.84 38.9 19.34"/><polygon class="cls-1" points="46.42 10.79 48.95 14.22 46.08 18.41 43.88 14.58 46.42 10.79"/><polygon class="cls-2" points="49.62 13.95 53.63 13.52 51.08 10.22 46.91 10.35 49.62 13.95"/><polygon class="cls-3" points="49.45 14.64 46.62 18.7 50.3 18.14 53.49 14.17 49.45 14.64"/><polygon class="cls-2" points="52.3 17.32 55.63 17.61 57.58 14.02 54.24 13.77 52.3 17.32"/><polygon class="cls-1" points="52.34 17.77 55.68 18.05 57.11 20.28 53.65 19.86 52.34 17.77"/><polygon class="cls-3" points="55.99 17.8 57.4 20.05 59.25 16.34 57.9 14.24 55.99 17.8"/><polygon class="cls-3" points="60.77 19.11 60.51 21.32 62.18 23.28 62.51 21.23 60.77 19.11"/><polygon class="cls-2" points="57.59 20.5 57.3 22.52 60.16 21.16 60.44 19.12 57.59 20.5"/><polygon class="cls-1" points="57.4 22.81 60.24 21.57 62 23.53 59.21 24.69 57.4 22.81"/><text class="cls-4" transform="translate(57.5 54.4)">AWS CAPITAL</text></svg>