<svg xmlns="http://www.w3.org/2000/svg" xmlns:xlink="http://www.w3.org/1999/xlink" viewBox="0 0 512 512"><defs><style>.cls-1{isolation:isolate;}.cls-2{fill:url(#linear-gradient);}.cls-3{fill:url(#linear-gradient-2);}.cls-4{mix-blend-mode:multiply;fill:url(#linear-gradient-3);}.cls-5{fill:url(#linear-gradient-4);}.cls-6{fill:url(#linear-gradient-5);}.cls-7{fill:url(#linear-gradient-6);}.cls-8{fill:url(#radial-gradient);}.cls-9{fill:url(#radial-gradient-2);}.cls-10{fill:url(#radial-gradient-3);}.cls-11{fill:url(#radial-gradient-4);}.cls-12{fill:url(#radial-gradient-5);}.cls-13{fill:url(#radial-gradient-6);}.cls-14{fill:url(#radial-gradient-7);}.cls-15{fill:url(#radial-gradient-8);}.cls-16{fill:url(#linear-gradient-7);}.cls-17{fill:#f4db51;}.cls-18{fill:url(#linear-gradient-8);}.cls-19{fill:url(#linear-gradient-9);}</style><linearGradient id="linear-gradient" x1="0.71" y1="257.11" x2="512.71" y2="257.11" gradientUnits="userSpaceOnUse"><stop offset="0" stop-color="#be831a"/><stop offset="0.31" stop-color="#efcc53"/><stop offset="0.83" stop-color="#c48b1e"/><stop offset="1" stop-color="#78471d"/></linearGradient><linearGradient id="linear-gradient-2" x1="256.71" y1="466.51" x2="256.71" y2="270.65" gradientUnits="userSpaceOnUse"><stop offset="0" stop-color="#71321b"/><stop offset="0.34" stop-color="#c48b1e"/><stop offset="0.69" stop-color="#efcc53"/><stop offset="1" stop-color="#be831a"/></linearGradient><linearGradient id="linear-gradient-3" x1="28.66" y1="257.11" x2="484.76" y2="257.11" gradientTransform="translate(256.99 -106.22) rotate(45)" xlink:href="#linear-gradient"/><linearGradient id="linear-gradient-4" x1="256.71" y1="448.96" x2="256.71" y2="65.26" gradientTransform="translate(256.99 -106.22) rotate(45)" gradientUnits="userSpaceOnUse"><stop offset="0" stop-color="#be831a"/><stop offset="0.31" stop-color="#e1a623"/><stop offset="0.68" stop-color="#c48b1e"/><stop offset="1" stop-color="#71301b"/></linearGradient><linearGradient id="linear-gradient-5" x1="239.45" y1="482.94" x2="239.45" y2="108.06" gradientTransform="matrix(1, 0, 0, 1, 0, 0)" xlink:href="#linear-gradient-4"/><linearGradient id="linear-gradient-6" x1="39.52" y1="257.11" x2="473.9" y2="257.11" xlink:href="#linear-gradient"/><radialGradient id="radial-gradient" cx="-61.17" cy="18.75" r="7.26" gradientTransform="translate(196.04 192.96) scale(1.68 1.68)" gradientUnits="userSpaceOnUse"><stop offset="0.31" stop-color="#efcc53"/><stop offset="0.83" stop-color="#c48b1e"/><stop offset="1" stop-color="#78471d"/></radialGradient><radialGradient id="radial-gradient-2" cx="-49.98" cy="-10.11" r="8.35" xlink:href="#radial-gradient"/><radialGradient id="radial-gradient-3" cx="-29.28" cy="-34.01" r="9.43" xlink:href="#radial-gradient"/><radialGradient id="radial-gradient-4" cx="-0.89" cy="-50.3" r="10.51" xlink:href="#radial-gradient"/><radialGradient id="radial-gradient-5" cx="30.02" cy="-56.56" r="11.6" xlink:href="#radial-gradient"/><radialGradient id="radial-gradient-6" cx="60.74" cy="-52.93" r="12.68" xlink:href="#radial-gradient"/><radialGradient id="radial-gradient-7" cx="88.62" cy="-39.61" r="13.76" xlink:href="#radial-gradient"/><radialGradient id="radial-gradient-8" cx="110.99" cy="-16.75" r="14.86" xlink:href="#radial-gradient"/><linearGradient id="linear-gradient-7" x1="256.71" y1="453.05" x2="256.71" y2="407.94" gradientUnits="userSpaceOnUse"><stop offset="0" stop-color="#ebc236"/><stop offset="1" stop-color="#6d351b"/></linearGradient><linearGradient id="linear-gradient-8" x1="256.55" y1="420.48" x2="256.55" y2="381.64" gradientTransform="matrix(1, 0, 0, 1, 0, 0)" xlink:href="#linear-gradient-4"/><linearGradient id="linear-gradient-9" x1="180.26" y1="264.15" x2="318.89" y2="264.15" gradientTransform="matrix(1, 0, 0, 1, 0, 0)" xlink:href="#linear-gradient-4"/></defs><title>Prancheta 1</title><g class="cls-1"><g id="Camada_1" data-name="Camada 1"><polygon class="cls-2" points="256.71 1.11 269.23 18.26 283.47 2.51 294.13 20.87 309.94 6.71 318.62 26.08 335.82 13.64 342.43 33.81 360.84 23.24 365.3 44 384.71 35.41 386.98 56.52 407.19 50 407.23 71.23 428.01 66.86 425.84 87.98 446.96 85.81 442.59 106.59 463.82 106.64 457.31 126.84 478.41 129.11 469.82 148.52 490.58 152.99 480.01 171.39 500.18 178 487.74 195.21 507.12 203.88 492.95 219.69 511.31 230.35 495.56 244.59 512.71 257.11 495.56 269.63 511.31 283.87 492.95 294.53 507.12 310.33 487.74 319.01 500.18 336.22 480.01 342.83 490.58 361.23 469.82 365.7 478.41 385.11 457.31 387.38 463.82 407.58 442.59 407.63 446.96 428.41 425.84 426.24 428.01 447.36 407.23 442.99 407.19 464.22 386.98 457.7 384.71 478.81 365.3 470.22 360.84 490.98 342.43 480.4 335.82 500.58 318.62 488.14 309.94 507.51 294.13 493.35 283.47 511.71 269.23 495.96 256.71 513.11 244.19 495.96 229.95 511.71 219.29 493.35 203.49 507.51 194.81 488.14 177.6 500.58 171 480.4 152.59 490.98 148.13 470.22 128.71 478.81 126.44 457.7 106.24 464.22 106.19 442.99 85.41 447.36 87.58 426.24 66.47 428.41 70.83 407.63 49.6 407.58 56.12 387.38 35.01 385.11 43.6 365.7 22.84 361.23 33.42 342.83 13.24 336.22 25.68 319.01 6.31 310.33 20.48 294.53 2.11 283.87 17.86 269.63 0.71 257.11 17.86 244.59 2.11 230.35 20.48 219.69 6.31 203.88 25.68 195.21 13.24 178 33.42 171.39 22.84 152.99 43.6 148.52 35.01 129.11 56.12 126.84 49.6 106.64 70.83 106.59 66.47 85.81 87.58 87.98 85.41 66.86 106.19 71.23 106.24 50 126.44 56.52 128.71 35.41 148.13 44 152.59 23.24 171 33.81 177.6 13.64 194.81 26.08 203.49 6.71 219.29 20.87 229.95 2.51 244.19 18.26 256.71 1.11"/><path class="cls-3" d="M495.56,244.59l15.75-14.24-7.13-4.14c-69.31,15.53-148.92,24.38-233.61,24.38-92.82,0-179.55-10.63-253.29-29l-15.17,8.8,15.75,14.24L.71,257.11l17.15,12.52L2.11,283.87l18.37,10.66L6.31,310.33,25.68,319,13.24,336.22l20.18,6.61-10.58,18.4L43.6,365.7,35,385.11l21.11,2.27-6.52,20.2,21.23.05-4.36,20.78,21.11-2.17-2.17,21.12L106.19,443l0,21.23,20.2-6.52,2.27,21.11,19.42-8.59L152.59,491,171,480.4l6.6,20.18,17.21-12.44,8.68,19.38,15.81-14.17L230,511.71,244.19,496l12.52,17.15L269.23,496l14.24,15.75,10.66-18.36,15.81,14.17,8.68-19.38,17.2,12.44,6.61-20.18L360.84,491l4.46-20.76,19.41,8.59L387,457.7l20.21,6.52,0-21.23L428,447.36l-2.17-21.12L447,428.41l-4.37-20.78,21.23-.05-6.51-20.2,21.1-2.27-8.59-19.41,20.76-4.47L480,342.83l20.17-6.61L487.74,319l19.38-8.68L493,294.53l18.36-10.66-15.75-14.24,17.15-12.52Z"/><circle class="cls-4" cx="256.71" cy="257.11" r="228.05" transform="translate(-106.62 256.83) rotate(-45)"/><circle class="cls-5" cx="256.71" cy="257.11" r="191.85" transform="translate(-106.62 256.83) rotate(-45)"/><path class="cls-6" d="M356.37,375.73c-106,0-191.85-85.9-191.85-191.85A190.9,190.9,0,0,1,199,74.09a191.92,191.92,0,0,0-134.17,183c0,106,85.89,191.85,191.85,191.85A191.62,191.62,0,0,0,414.05,366.9,191.79,191.79,0,0,1,356.37,375.73Z"/><path class="cls-7" d="M256.71,39.92c-119.95,0-217.19,97.24-217.19,217.19S136.76,474.3,256.71,474.3,473.9,377.06,473.9,257.11,376.66,39.92,256.71,39.92Zm0,423.52c-113.95,0-206.33-92.38-206.33-206.33S142.76,50.78,256.71,50.78,463,143.16,463,257.11,370.67,463.44,256.71,463.44Z"/><polygon class="cls-8" points="84.16 234.96 92.31 230.47 99.36 236.56 97.61 227.41 105.58 222.59 96.33 221.43 94.21 212.35 90.25 220.78 80.97 220.01 87.77 226.38 84.16 234.96"/><polygon class="cls-9" points="102.02 188.47 111.26 183.04 119.57 189.82 117.26 179.35 126.28 173.54 115.6 172.51 112.87 162.14 108.58 171.96 97.88 171.37 105.9 178.48 102.02 188.47"/><polygon class="cls-10" points="135.85 150.31 146.18 143.94 155.74 151.42 152.88 139.63 162.94 132.84 150.84 131.92 147.49 120.25 142.88 131.48 130.76 131.06 140 138.91 135.85 150.31"/><polygon class="cls-11" points="182.61 124.93 194.02 117.62 204.84 125.78 201.42 112.67 212.53 104.9 199 104.11 195.04 91.14 190.1 103.76 176.56 103.52 187.03 112.11 182.61 124.93"/><polygon class="cls-12" points="233.59 116.41 246.09 108.16 258.16 117.02 254.19 102.58 266.34 93.83 251.38 93.16 246.82 78.89 241.55 92.91 226.58 92.84 238.28 102.19 233.59 116.41"/><polygon class="cls-13" points="284.26 124.48 297.84 115.3 311.18 124.85 306.64 109.09 319.84 99.36 303.45 98.8 298.28 83.24 292.68 98.66 276.29 98.77 289.22 108.85 284.26 124.48"/><polygon class="cls-14" points="330.15 148.86 344.82 138.73 359.41 148.98 354.31 131.9 368.57 121.18 350.74 120.75 344.96 103.89 339.04 120.7 321.22 120.99 335.38 131.82 330.15 148.86"/><polygon class="cls-15" points="366.79 189.17 382.55 178.11 398.4 189.04 392.75 170.64 408.04 158.94 388.79 158.63 382.4 140.47 376.15 158.69 356.9 159.15 372.29 170.72 366.79 189.17"/><path class="cls-16" d="M133.13,403.85a191.82,191.82,0,0,0,247.15,0Z"/><polygon class="cls-17" points="236.3 431.23 256.63 416.95 277.08 431.06 269.79 407.32 289.52 392.23 264.68 391.82 256.43 368.39 248.37 391.9 223.54 392.5 243.4 407.43 236.3 431.23"/><polygon class="cls-18" points="248.43 405.77 236.16 396.54 251.5 396.17 256.49 381.64 261.58 396.13 276.94 396.37 264.74 405.7 269.25 420.38 256.61 411.66 244.04 420.48 248.43 405.77"/><path class="cls-17" d="M251,348.72q-35,0-55.59-22.59T174.83,265q0-39.28,21.38-62.36t57.84-23.08q29.24,0,48.17,14.62t22.1,39.5h-33.5q-1.31-10.47-11.8-18.38a37.53,37.53,0,0,0-23.16-7.91q-21.84,0-34.19,15.11t-12.34,42q0,27.28,11.84,41.52t34.66,14.24h-.11q19.43,0,30.34-14.83a57.74,57.74,0,0,0,8.84-19.76v-.32H257.14V257.71h67.18v86.53H302l-3.27-20.73-2,2.62q-16.92,22.59-45.84,22.59Z"/><path class="cls-19" d="M250.93,343.28c-21.92,0-38.77-6.82-51.52-20.81S180.26,289.18,180.26,265c0-24.65,6.71-44.39,19.94-58.67S231.12,185,254.05,185c18.17,0,33.26,4.53,44.85,13.48a50.3,50.3,0,0,1,19,29.77H295.2c-2-6.51-6.3-12.31-12.9-17.29a43.07,43.07,0,0,0-26.44-9c-16.21,0-29.13,5.76-38.4,17.11-9,11-13.57,26.3-13.57,45.39,0,19.41,4.41,34.55,13.1,45,8.93,10.74,22,16.19,38.77,16.2,14.7,0,26.37-5.75,34.68-17.05A63.38,63.38,0,0,0,300.18,287l.16-.65v-6.43H262.58V263.15h56.31v75.66H306.6L302.05,310l-9.68,12.91C282.09,336.59,268.54,343.27,250.93,343.28Z"/><path class="cls-17" d="M206,172.76a13.14,13.14,0,0,1-11,.36q-5.13-2.25-8-8.71c-1.95-4.4-2.31-8.41-1.06-12.06s3.9-6.38,8-8.19a14.06,14.06,0,0,1,9.18-1.15,10.49,10.49,0,0,1,6.65,5l-5.62,2.5a5,5,0,0,0-3.35-2.2,6.9,6.9,0,0,0-4.47.4,7.67,7.67,0,0,0-4.61,5.09c-.63,2.31-.27,5,1.06,8s3.06,5.08,5.09,6.08a7.84,7.84,0,0,0,6.88-.2h0a6.53,6.53,0,0,0,4-4.76,10.79,10.79,0,0,0,0-4l0-.06-6.33,2.82L200.24,157l11.26-5L218,166.53l-3.75,1.67-2.1-3.23-.13.58a9.94,9.94,0,0,1-6,7.21Z"/><path class="cls-17" d="M229.71,160.43q-4.25-3.7-5-10.74t2.57-11.8a13.23,13.23,0,0,1,9.8-5.32q6.49-.69,10.75,3.11t5,11q.77,7-2.59,11.56t-9.84,5.24C236.11,163.91,232.55,162.91,229.71,160.43Zm15.71-5.49c1.22-1.94,1.65-4.5,1.31-7.67s-1.33-5.7-2.93-7.38a7.63,7.63,0,0,0-11.69,1.26q-1.81,3-1.29,7.84c.34,3.17,1.31,5.58,2.9,7.21a7.77,7.77,0,0,0,11.7-1.26Z"/><path class="cls-17" d="M263.68,162.11l5.05-29,3,.52,3,.53L270.63,158l14.43,2.51-.44,2.57-.45,2.58Z"/><path class="cls-17" d="M305.1,141.68l2.77,1.32,8.6,4.11q5.47,2.63,6.79,7.2t-1.66,10.78q-3.25,6.82-7.91,9t-10.37-.59l-8.15-3.89-2.77-1.33Zm-5,24.65,4.68,2.24a6.54,6.54,0,0,0,6.16.14c1.86-1,3.51-3,5-6.06,1.32-2.76,1.78-5.08,1.4-7a6.18,6.18,0,0,0-3.75-4.33l-5.14-2.45Z"/></g></g></svg>