<svg xmlns="http://www.w3.org/2000/svg" xmlns:xlink="http://www.w3.org/1999/xlink" viewBox="0 0 512 512"><defs><style>.cls-1{isolation:isolate;}.cls-2{fill:url(#linear-gradient);}.cls-3{fill:url(#linear-gradient-2);}.cls-11,.cls-4{mix-blend-mode:multiply;}.cls-4{fill:url(#linear-gradient-3);}.cls-5{fill:url(#linear-gradient-4);}.cls-6{fill:url(#linear-gradient-5);}.cls-7{fill:url(#linear-gradient-6);}.cls-8{fill:#efeeee;}.cls-9{fill:url(#linear-gradient-7);}.cls-10{fill:url(#linear-gradient-8);}.cls-11{fill:url(#linear-gradient-9);}</style><linearGradient id="linear-gradient" x1="-0.22" y1="255.97" x2="511.78" y2="255.97" gradientUnits="userSpaceOnUse"><stop offset="0" stop-color="#525151"/><stop offset="0.04" stop-color="#5f5e5e"/><stop offset="0.21" stop-color="#9b9a99"/><stop offset="0.36" stop-color="#c6c5c4"/><stop offset="0.47" stop-color="#e1e0df"/><stop offset="0.54" stop-color="#ebeae9"/><stop offset="0.6" stop-color="#e0dfde"/><stop offset="0.7" stop-color="#c1c0bf"/><stop offset="0.84" stop-color="#908f8e"/><stop offset="1" stop-color="#525151"/></linearGradient><linearGradient id="linear-gradient-2" x1="255.78" y1="465.37" x2="255.78" y2="269.51" gradientUnits="userSpaceOnUse"><stop offset="0" stop-color="#525151"/><stop offset="0.05" stop-color="#626161"/><stop offset="0.21" stop-color="#9d9d9c"/><stop offset="0.35" stop-color="#c8c8c7"/><stop offset="0.46" stop-color="#e3e3e2"/><stop offset="0.53" stop-color="#ededec"/><stop offset="0.59" stop-color="#e2e2e1"/><stop offset="0.69" stop-color="#c3c3c2"/><stop offset="0.84" stop-color="#929291"/><stop offset="1" stop-color="#525151"/></linearGradient><linearGradient id="linear-gradient-3" x1="27.73" y1="255.97" x2="483.83" y2="255.97" gradientTransform="translate(255.91 -105.89) rotate(45)" gradientUnits="userSpaceOnUse"><stop offset="0" stop-color="#525151"/><stop offset="0.12" stop-color="#706f6f"/><stop offset="0.3" stop-color="#9b9a9a"/><stop offset="0.44" stop-color="#b5b5b5"/><stop offset="0.53" stop-color="#bfbfbf"/><stop offset="0.61" stop-color="#b4b4b4"/><stop offset="0.75" stop-color="#969595"/><stop offset="0.93" stop-color="#656464"/><stop offset="1" stop-color="#525151"/></linearGradient><linearGradient id="linear-gradient-4" x1="255.78" y1="447.82" x2="255.78" y2="64.11" gradientTransform="translate(485.25 -23.83) rotate(84.34)" gradientUnits="userSpaceOnUse"><stop offset="0" stop-color="#525151"/><stop offset="0.2" stop-color="#8a8989"/><stop offset="0.39" stop-color="#bbbaba"/><stop offset="0.47" stop-color="#cfcfcf"/><stop offset="0.53" stop-color="#d9d9d9"/><stop offset="0.59" stop-color="#cecece"/><stop offset="0.67" stop-color="#bbbaba"/><stop offset="0.94" stop-color="#777676"/><stop offset="1" stop-color="#666565"/></linearGradient><linearGradient id="linear-gradient-5" x1="238.52" y1="481.79" x2="238.52" y2="106.92" gradientUnits="userSpaceOnUse"><stop offset="0" stop-color="#1f1e1e"/><stop offset="0.53" stop-color="#bebebe"/><stop offset="1" stop-color="#c8c7c7"/></linearGradient><linearGradient id="linear-gradient-6" x1="38.59" y1="255.97" x2="472.97" y2="255.97" gradientUnits="userSpaceOnUse"><stop offset="0" stop-color="#525151"/><stop offset="0.08" stop-color="#747373"/><stop offset="0.24" stop-color="#afafaf"/><stop offset="0.37" stop-color="#dadada"/><stop offset="0.47" stop-color="#f5f5f5"/><stop offset="0.53" stop-color="#fff"/><stop offset="0.59" stop-color="#f4f4f4"/><stop offset="0.68" stop-color="#d5d5d5"/><stop offset="0.81" stop-color="#a4a4a4"/><stop offset="0.97" stop-color="#616060"/><stop offset="1" stop-color="#525151"/></linearGradient><linearGradient id="linear-gradient-7" x1="255.77" y1="451.91" x2="255.77" y2="406.79" gradientUnits="userSpaceOnUse"><stop offset="0" stop-color="#bfbfbf"/><stop offset="0.97" stop-color="#2a2a2a"/><stop offset="1" stop-color="#525151"/></linearGradient><linearGradient id="linear-gradient-8" x1="255.61" y1="419.34" x2="255.61" y2="380.5" gradientTransform="matrix(1, 0, 0, 1, 0, 0)" xlink:href="#linear-gradient-4"/><linearGradient id="linear-gradient-9" x1="204.66" y1="266.03" x2="316.88" y2="266.03" gradientTransform="matrix(1, 0, 0, 1, 0, 0)" xlink:href="#linear-gradient-3"/></defs><title>Prancheta 1</title><g class="cls-1"><g id="Camada_1" data-name="Camada 1"><polygon class="cls-2" points="255.78 -0.03 268.29 17.11 282.54 1.37 293.19 19.73 309 5.56 317.68 24.93 334.88 12.49 341.49 32.67 359.9 22.1 364.36 42.85 383.78 34.26 386.04 55.37 406.25 48.86 406.3 70.09 427.07 65.72 424.9 86.84 446.02 84.67 441.66 105.44 462.88 105.49 456.37 125.7 477.48 127.97 468.89 147.38 489.64 151.84 479.07 170.25 499.25 176.86 486.81 194.06 506.18 202.74 492.01 218.55 510.37 229.21 494.63 243.45 511.78 255.97 494.63 268.48 510.37 282.73 492.01 293.38 506.18 309.19 486.81 317.87 499.25 335.07 479.07 341.68 489.64 360.09 468.89 364.55 477.48 383.96 456.37 386.23 462.88 406.44 441.66 406.49 446.02 427.26 424.9 425.09 427.07 446.21 406.3 441.85 406.25 463.07 386.04 456.56 383.78 477.67 364.36 469.08 359.9 489.83 341.49 479.26 334.88 499.44 317.68 487 309 506.37 293.19 492.2 282.54 510.56 268.29 494.82 255.78 511.97 243.26 494.82 229.02 510.56 218.36 492.2 202.55 506.37 193.87 487 176.67 499.44 170.06 479.26 151.65 489.83 147.19 469.08 127.78 477.67 125.51 456.56 105.3 463.07 105.25 441.85 84.48 446.21 86.65 425.09 65.53 427.26 69.9 406.49 48.67 406.44 55.18 386.23 34.07 383.96 42.67 364.55 21.91 360.09 32.48 341.68 12.31 335.07 24.75 317.87 5.37 309.19 19.54 293.38 1.18 282.73 16.92 268.48 -0.22 255.97 16.92 243.45 1.18 229.21 19.54 218.55 5.37 202.74 24.75 194.06 12.31 176.86 32.48 170.25 21.91 151.84 42.67 147.38 34.07 127.97 55.18 125.7 48.67 105.49 69.9 105.44 65.53 84.67 86.65 86.84 84.48 65.72 105.25 70.09 105.3 48.86 125.51 55.37 127.78 34.26 147.19 42.85 151.65 22.1 170.06 32.67 176.67 12.49 193.87 24.93 202.55 5.56 218.36 19.73 229.02 1.37 243.26 17.11 255.78 -0.03"/><path class="cls-3" d="M494.63,243.45l15.74-14.24-7.13-4.14c-69.31,15.53-148.92,24.37-233.6,24.37-92.83,0-179.56-10.62-253.3-29l-15.16,8.8,15.74,14.24L-.22,256l17.14,12.51L1.18,282.72l18.36,10.66L5.37,309.19l19.38,8.68-12.44,17.2,20.17,6.61L21.91,360.09l20.76,4.46L34.07,384l21.11,2.26-6.51,20.21,21.23.05-4.37,20.77,21.12-2.17-2.17,21.12,20.77-4.37,0,21.23,20.21-6.51,2.27,21.11,19.41-8.59,4.46,20.75,18.41-10.57,6.61,20.18L193.87,487l8.68,19.37,15.81-14.17L229,510.56l14.24-15.74L255.78,512l12.51-17.15,14.25,15.74,10.65-18.36L309,506.37,317.68,487l17.2,12.44,6.61-20.18,18.41,10.57,4.46-20.75,19.42,8.59L386,456.56l20.21,6.51.05-21.23,20.77,4.37-2.17-21.12L446,427.26l-4.36-20.77,21.23-.05-6.52-20.21L477.48,384l-8.59-19.42,20.75-4.46-10.57-18.41,20.18-6.61-12.44-17.2,19.37-8.68L492,293.38l18.36-10.66-15.74-14.24L511.78,256Z"/><circle class="cls-4" cx="255.78" cy="255.97" r="228.05" transform="translate(-106.08 255.83) rotate(-45)"/><circle class="cls-5" cx="255.78" cy="255.97" r="191.85" transform="matrix(0.1, -1, 1, 0.1, -24.19, 485.23)"/><path class="cls-6" d="M355.44,374.59c-106,0-191.86-85.9-191.86-191.86A191,191,0,0,1,198.1,72.94,191.94,191.94,0,0,0,63.92,256c0,106,85.9,191.85,191.86,191.85a191.63,191.63,0,0,0,157.34-82.06A191.84,191.84,0,0,1,355.44,374.59Z"/><path class="cls-7" d="M255.78,38.78C135.83,38.78,38.59,136,38.59,256s97.24,217.18,217.19,217.18S473,375.92,473,256,375.73,38.78,255.78,38.78Zm0,423.52c-114,0-206.34-92.38-206.34-206.33S141.82,49.63,255.78,49.63,462.11,142,462.11,256,369.73,462.3,255.78,462.3Z"/><polygon class="cls-8" points="85.74 225.76 93.89 221.27 100.94 227.36 99.19 218.21 107.16 213.38 97.92 212.23 95.79 203.15 91.83 211.58 82.56 210.81 89.35 217.18 85.74 225.76"/><polygon class="cls-8" points="103.61 179.27 112.85 173.84 121.15 180.62 118.84 170.15 127.86 164.34 117.19 163.31 114.45 152.94 110.16 162.76 99.47 162.16 107.48 169.28 103.61 179.27"/><polygon class="cls-8" points="137.44 141.11 147.76 134.74 157.32 142.22 154.46 130.43 164.53 123.64 152.42 122.72 149.08 111.05 144.46 122.28 132.34 121.86 141.59 129.71 137.44 141.11"/><polygon class="cls-8" points="184.19 115.73 195.61 108.42 206.43 116.58 203 103.47 214.12 95.7 200.58 94.91 196.63 81.94 191.68 94.56 178.14 94.32 188.61 102.91 184.19 115.73"/><polygon class="cls-8" points="235.17 107.2 247.67 98.96 259.75 107.82 255.77 93.38 267.93 84.63 252.96 83.95 248.4 69.69 243.13 83.71 228.16 83.64 239.86 92.98 235.17 107.2"/><polygon class="cls-8" points="285.84 115.28 299.42 106.1 312.76 115.65 308.22 99.89 321.43 90.15 305.03 89.6 299.86 74.04 294.26 89.46 277.87 89.57 290.8 99.65 285.84 115.28"/><polygon class="cls-8" points="331.73 139.66 346.4 129.53 360.99 139.78 355.9 122.69 370.15 111.98 352.32 111.55 346.54 94.69 340.62 111.5 322.8 111.79 336.96 122.62 331.73 139.66"/><polygon class="cls-8" points="368.37 179.97 384.13 168.91 399.98 179.84 394.33 161.44 409.62 149.74 390.37 149.43 383.98 131.27 377.73 149.49 358.49 149.95 373.87 161.52 368.37 179.97"/><path class="cls-9" d="M132.2,402.71a191.82,191.82,0,0,0,247.15,0Z"/><polygon class="cls-8" points="235.36 430.08 255.69 415.81 276.14 429.92 268.85 406.17 288.59 391.08 263.74 390.68 255.5 367.25 247.44 390.75 222.61 391.35 242.46 406.28 235.36 430.08"/><polygon class="cls-10" points="247.49 404.63 235.22 395.4 250.57 395.02 255.55 380.5 260.65 394.98 276.01 395.23 263.81 404.56 268.31 419.24 255.67 410.51 243.11 419.33 247.49 404.63"/><path class="cls-8" d="M199.23,185.82h67.11q27.39,0,41.68,12.82T322.32,236q0,26-14.3,39.44t-41.68,13.48q-19.42-.1-33.61.22v57.07h-33.5Zm33.5,75.51h27.93q14.08,0,21.12-6.22t7-18.76q0-11.46-7-17.19t-21.12-5.73H232.73Z"/><path class="cls-11" d="M204.66,340.79V191.26h61.68c16.79,0,29.59,3.85,38.05,11.43s12.49,18.44,12.49,33.33c0,15.67-4.24,27.62-12.59,35.49s-21.21,12-38,12l-9.36,0c-9.09,0-17.29.08-24.38.24l-5.31.13v56.94Zm22.63-74h33.37c10.71,0,19-2.55,24.72-7.58,5.89-5.21,8.87-12.89,8.87-22.84,0-9.32-3-16.52-9-21.41-5.67-4.61-13.92-6.95-24.55-6.95H227.29Z"/><path class="cls-8" d="M127.66,202.71l1.87-2.43,5.64-7.34q3.06-4,6.53-4.64t7,2.1q3.78,2.91,4.14,6.5c.24,2.39-.66,4.92-2.7,7.57q-2.19,2.82-3.73,4.92l8.31,6.39-1.87,2.43L151,220.65Zm14.74,3.57,3.13-4.07a5.72,5.72,0,0,0,1.45-3.77,4.33,4.33,0,0,0-1.94-3.12,3.8,3.8,0,0,0-3.29-.9,6.05,6.05,0,0,0-3.2,2.43l-3.12,4.07Z"/><path class="cls-8" d="M171.52,196.5l-17.91-23.38,2.44-1.87,2.44-1.87,14.73,19.23,11.63-8.91,1.58,2.07,1.6,2.08Z"/><path class="cls-8" d="M192.08,149.18l3.31-1.33,3.31-1.32L219.33,170l-3,1.21-3,1.22-4.08-4.82-10.37,4.16.45,6.28-2.94,1.18-3,1.18Zm6.45,17.23,7.26-2.91-8-9.53h0Z"/><path class="cls-8" d="M231.28,143.8l-8.84.95-.28-2.58-.29-2.61L245.68,137l.27,2.58.29,2.61-8.85,1,2.6,24.08-3,.33-3.07.33Z"/><path class="cls-8" d="M259.84,137.75l3.05.31,3.07.31L263,167.67l-3.05-.31-3.07-.31Z"/><path class="cls-8" d="M278.6,170.4l-2.74-.86-2.75-.87L282,140.59l3.08,1,3.07,1,5.05,23.28,6.22-19.72,2.74.86,2.75.87L296,175.91,293.1,175l-2.93-.92L285,150.15Z"/><path class="cls-8" d="M330.87,184.51q-3.54,5.22-7.42,6t-9.1-2.82q-5-3.41-5.77-7.46t2.64-9.08L321.56,156l2.53,1.73,2.55,1.73-10.45,15.33a6.85,6.85,0,0,0-1.49,4.73,5.5,5.5,0,0,0,2.67,3.74q2.55,1.74,4.46,1.29c1.28-.31,2.56-1.4,3.84-3.29l10.46-15.33,2.53,1.73,2.55,1.74Z"/><path class="cls-8" d="M335.66,204.75l-1.76-2.26-1.78-2.27,23.2-18.14,2.78,3.55,2.77,3.55-15.08,18.6h0l21.65-10.2,2.74,3.5,2.74,3.5-23.2,18.15L348,220.47l-1.77-2.27,19.5-15.26h0l-22.9,10.92-1.86-2.39-1.86-2.38,16.54-19.92h0Z"/></g></g></svg>