<svg xmlns="http://www.w3.org/2000/svg" xmlns:xlink="http://www.w3.org/1999/xlink" viewBox="0 0 512 512"><defs><style>.cls-1{isolation:isolate;}.cls-2{fill:url(#linear-gradient);}.cls-3{fill:url(#linear-gradient-2);}.cls-4{mix-blend-mode:multiply;fill:url(#linear-gradient-3);}.cls-5{fill:url(#linear-gradient-4);}.cls-6{fill:url(#linear-gradient-5);}.cls-7{fill:url(#linear-gradient-6);}.cls-8{fill:url(#radial-gradient);}.cls-9{fill:url(#radial-gradient-2);}.cls-10{fill:url(#radial-gradient-3);}.cls-11{fill:url(#radial-gradient-4);}.cls-12{fill:url(#radial-gradient-5);}.cls-13{fill:url(#radial-gradient-6);}.cls-14{fill:url(#radial-gradient-7);}.cls-15{fill:url(#radial-gradient-8);}.cls-16{fill:url(#linear-gradient-7);}.cls-17{fill:#c2c1c1;}.cls-18{fill:url(#linear-gradient-8);}.cls-19{fill:url(#linear-gradient-9);}</style><linearGradient id="linear-gradient" x1="7.36" y1="252.56" x2="503.36" y2="252.56" gradientUnits="userSpaceOnUse"><stop offset="0" stop-color="#525151"/><stop offset="0.12" stop-color="#706f6f"/><stop offset="0.3" stop-color="#9b9a9a"/><stop offset="0.44" stop-color="#b5b5b5"/><stop offset="0.53" stop-color="#bfbfbf"/><stop offset="0.61" stop-color="#b4b4b4"/><stop offset="0.75" stop-color="#969595"/><stop offset="0.93" stop-color="#656464"/><stop offset="1" stop-color="#525151"/></linearGradient><linearGradient id="linear-gradient-2" x1="255.36" y1="455.42" x2="255.36" y2="265.67" xlink:href="#linear-gradient"/><linearGradient id="linear-gradient-3" x1="34.43" y1="252.56" x2="476.28" y2="252.56" gradientTransform="translate(253.38 -106.59) rotate(45)" xlink:href="#linear-gradient"/><linearGradient id="linear-gradient-4" x1="255.36" y1="438.41" x2="255.36" y2="66.7" gradientTransform="translate(253.38 -106.59) rotate(45)" gradientUnits="userSpaceOnUse"><stop offset="0" stop-color="#525151"/><stop offset="0.21" stop-color="#747373"/><stop offset="0.41" stop-color="#8e8e8e"/><stop offset="0.53" stop-color="#989898"/><stop offset="0.64" stop-color="#8d8d8d"/><stop offset="0.84" stop-color="#6f6e6e"/><stop offset="1" stop-color="#525151"/></linearGradient><linearGradient id="linear-gradient-5" x1="238.64" y1="471.32" x2="238.64" y2="108.16" gradientUnits="userSpaceOnUse"><stop offset="0" stop-color="#1f1e1e"/><stop offset="0.53" stop-color="#a8a7a7"/><stop offset="1" stop-color="#525151"/></linearGradient><linearGradient id="linear-gradient-6" x1="44.95" y1="252.55" x2="465.76" y2="252.55" xlink:href="#linear-gradient"/><radialGradient id="radial-gradient" cx="-69.8" cy="14.01" r="7.83" gradientTransform="translate(202.43 199.77) scale(1.51 1.51)" gradientUnits="userSpaceOnUse"><stop offset="0" stop-color="#bfbfbf"/><stop offset="0.33" stop-color="#b4b4b4"/><stop offset="0.91" stop-color="#959595"/><stop offset="1" stop-color="#909090"/></radialGradient><radialGradient id="radial-gradient-2" cx="-57.74" cy="-17.09" r="9" xlink:href="#radial-gradient"/><radialGradient id="radial-gradient-3" cx="-35.44" cy="-42.85" r="10.16" xlink:href="#radial-gradient"/><radialGradient id="radial-gradient-4" cx="-4.84" cy="-60.41" r="11.33" xlink:href="#radial-gradient"/><radialGradient id="radial-gradient-5" cx="28.47" cy="-67.15" r="12.5" xlink:href="#radial-gradient"/><radialGradient id="radial-gradient-6" cx="61.58" cy="-63.25" r="13.66" xlink:href="#radial-gradient"/><radialGradient id="radial-gradient-7" cx="91.62" cy="-48.88" r="14.83" xlink:href="#radial-gradient"/><radialGradient id="radial-gradient-8" cx="115.73" cy="-24.25" r="16.02" xlink:href="#radial-gradient"/><linearGradient id="linear-gradient-7" x1="255.35" y1="442.37" x2="255.35" y2="398.67" gradientUnits="userSpaceOnUse"><stop offset="0" stop-color="#bfbfbf"/><stop offset="0.97" stop-color="#2a2a2a"/><stop offset="1" stop-color="#525151"/></linearGradient><linearGradient id="linear-gradient-8" x1="255.2" y1="410.82" x2="255.2" y2="373.2" gradientTransform="matrix(1, 0, 0, 1, 0, 0)" xlink:href="#linear-gradient-4"/><linearGradient id="linear-gradient-9" x1="193.9" y1="271.09" x2="310.58" y2="271.09" gradientTransform="matrix(1, 0, 0, 1, 0, 0)" xlink:href="#linear-gradient-4"/></defs><title>Prancheta 1</title><g class="cls-1"><g id="Camada_1" data-name="Camada 1"><polygon class="cls-2" points="255.36 4.55 267.48 21.17 281.28 5.91 291.6 23.7 306.92 9.97 315.32 28.74 331.99 16.69 338.39 36.24 356.23 26 360.55 46.1 379.36 37.78 381.55 58.23 401.13 51.92 401.17 72.48 421.3 68.25 419.2 88.71 439.65 86.61 435.43 106.74 455.99 106.78 449.68 126.36 470.13 128.56 461.81 147.36 481.92 151.68 471.67 169.52 491.22 175.92 479.17 192.59 497.94 200.99 484.21 216.31 502 226.63 486.75 240.43 503.36 252.56 486.75 264.68 502 278.48 484.21 288.8 497.94 304.12 479.17 312.52 491.22 329.19 471.67 335.59 481.92 353.43 461.81 357.75 470.13 376.55 449.68 378.75 455.99 398.33 435.43 398.37 439.65 418.5 419.2 416.4 421.3 436.86 401.17 432.63 401.13 453.19 381.55 446.88 379.36 467.33 360.55 459.01 356.23 479.11 338.39 468.87 331.99 488.42 315.32 476.37 306.92 495.13 291.6 481.41 281.28 499.2 267.48 483.94 255.36 500.56 243.23 483.94 229.43 499.2 219.11 481.41 203.79 495.13 195.39 476.37 178.72 488.42 172.32 468.87 154.49 479.11 150.16 459.01 131.36 467.33 129.16 446.88 109.58 453.19 109.54 432.63 89.41 436.86 91.51 416.4 71.06 418.5 75.29 398.37 54.72 398.33 61.03 378.75 40.58 376.55 48.9 357.75 28.8 353.43 39.04 335.59 19.49 329.19 31.55 312.52 12.78 304.12 26.5 288.8 8.71 278.48 23.97 264.68 7.36 252.56 23.97 240.43 8.71 226.63 26.5 216.31 12.78 200.99 31.55 192.59 19.49 175.92 39.04 169.52 28.8 151.68 48.9 147.36 40.58 128.56 61.03 126.36 54.72 106.78 75.29 106.74 71.06 86.61 91.51 88.71 89.41 68.25 109.54 72.48 109.58 51.92 129.16 58.23 131.36 37.78 150.16 46.1 154.49 26 172.32 36.24 178.72 16.69 195.39 28.74 203.79 9.97 219.11 23.7 229.43 5.91 243.23 21.17 255.36 4.55"/><path class="cls-3" d="M486.74,240.43,502,226.63l-6.91-4c-67.14,15-144.27,23.62-226.31,23.62-89.92,0-173.94-10.29-245.38-28.13L8.71,226.63,24,240.43,7.36,252.55,24,264.68,8.71,278.48,26.5,288.8,12.78,304.12l18.76,8.4-12,16.67L39,335.59,28.8,353.43l20.1,4.32-8.32,18.8L61,378.75l-6.31,19.58,20.57,0L71.06,418.5l20.45-2.1-2.1,20.45,20.13-4.22,0,20.56,19.58-6.31,2.2,20.45,18.8-8.32,4.33,20.1,17.83-10.24,6.4,19.55,16.67-12.05,8.4,18.77,15.32-13.73,10.32,17.79,13.8-15.26,12.13,16.62,12.12-16.62,13.8,15.26,10.32-17.79,15.32,13.73,8.4-18.77L332,488.42l6.4-19.55,17.84,10.24,4.32-20.1,18.81,8.32,2.19-20.45,19.58,6.31,0-20.56,20.13,4.22-2.1-20.45,20.46,2.1-4.23-20.13,20.56,0-6.31-19.58,20.45-2.2-8.32-18.8,20.11-4.32-10.25-17.84,19.55-6.4-12.05-16.67,18.77-8.4L484.21,288.8,502,278.48l-15.26-13.8,16.62-12.13Z"/><circle class="cls-4" cx="255.36" cy="252.55" r="220.93" transform="translate(-103.79 254.54) rotate(-45)"/><circle class="cls-5" cx="255.36" cy="252.55" r="185.86" transform="translate(-103.79 254.54) rotate(-45)"/><path class="cls-6" d="M351.9,367.47C249.25,367.47,166,284.26,166,181.61A185,185,0,0,1,199.48,75.25a185.93,185.93,0,0,0-130,177.3c0,102.65,83.21,185.86,185.86,185.86a185.64,185.64,0,0,0,152.42-79.5A185.58,185.58,0,0,1,351.9,367.47Z"/><path class="cls-7" d="M255.36,42.15C139.15,42.15,45,136.35,45,252.55S139.15,463,255.36,463s210.4-94.2,210.4-210.41S371.56,42.15,255.36,42.15Zm0,410.29C145,452.44,55.47,363,55.47,252.55S145,52.67,255.36,52.67s199.88,89.49,199.88,199.88S365.75,452.44,255.36,452.44Z"/><polygon class="cls-8" points="88.19 231.1 96.09 226.75 102.92 232.65 101.22 223.78 108.95 219.11 99.99 217.99 97.93 209.2 94.09 217.36 85.11 216.61 91.69 222.78 88.19 231.1"/><polygon class="cls-9" points="105.5 186.06 114.45 180.8 122.5 187.37 120.26 177.23 129 171.6 118.66 170.6 116.01 160.55 111.85 170.07 101.49 169.49 109.26 176.38 105.5 186.06"/><polygon class="cls-10" points="138.28 149.09 148.28 142.93 157.54 150.17 154.76 138.74 164.52 132.16 152.79 131.28 149.55 119.97 145.08 130.85 133.34 130.44 142.29 138.05 138.28 149.09"/><polygon class="cls-11" points="183.57 124.5 194.63 117.42 205.11 125.33 201.79 112.63 212.56 105.1 199.44 104.33 195.62 91.77 190.83 104 177.71 103.76 187.85 112.09 183.57 124.5"/><polygon class="cls-12" points="232.96 116.25 245.06 108.26 256.76 116.84 252.91 102.85 264.69 94.38 250.19 93.72 245.77 79.9 240.66 93.48 226.16 93.42 237.5 102.47 232.96 116.25"/><polygon class="cls-13" points="282.04 124.07 295.2 115.17 308.12 124.42 303.72 109.16 316.51 99.73 300.63 99.19 295.62 84.12 290.2 99.05 274.32 99.16 286.85 108.93 282.04 124.07"/><polygon class="cls-14" points="326.5 147.69 340.71 137.88 354.84 147.8 349.91 131.25 363.71 120.87 346.45 120.45 340.85 104.12 335.11 120.41 317.85 120.69 331.56 131.18 326.5 147.69"/><polygon class="cls-15" points="362 186.74 377.26 176.02 392.61 186.61 387.14 168.78 401.96 157.45 383.3 157.15 377.11 139.56 371.06 157.21 352.42 157.66 367.32 168.87 362 186.74"/><path class="cls-16" d="M135.64,394.71a185.81,185.81,0,0,0,239.42,0Z"/><polygon class="cls-17" points="235.58 421.23 255.28 407.4 275.09 421.07 268.02 398.07 287.14 383.45 263.07 383.06 255.09 360.36 247.28 383.13 223.22 383.71 242.46 398.17 235.58 421.23"/><polygon class="cls-18" points="247.33 396.57 235.44 387.63 250.31 387.27 255.14 373.2 260.07 387.23 274.95 387.46 263.13 396.5 267.5 410.72 255.25 402.27 243.08 410.82 247.33 396.57"/><path class="cls-17" d="M280.39,240a23,23,0,0,0-9.72-17.6q-8.87-6.51-23.13-6.5-12.37,0-19.34,5.44t-7,15.17q0,7,7.29,10.78t30.55,9q33.93,7.6,45.34,17.54t11.43,31.61q0,21.88-17.22,34.73T252,353q-29.49,0-46.08-13.64t-17.75-38.79h31.29q.53,12.36,9,19T252,326.27q15.53,0,24.25-5T285,307.34q0-8.76-6.28-12.89t-26.2-8.56q-37-8.25-49.44-17.87t-12.37-29.7q0-22.62,16.38-35.89t44.27-13.27q26.1,0,42.48,13.74T312,240Z"/><path class="cls-19" d="M252,347.75c-18.31,0-32.69-4.19-42.74-12.44-8.71-7.17-13.77-16.84-15.37-29.46h20.84a28.14,28.14,0,0,0,10.45,17.89c6.56,5.17,15.59,7.79,26.83,7.79,11.39,0,20.19-1.87,26.87-5.72,9.39-5.41,11.36-13,11.36-18.47,0-9.6-4.71-14.7-8.66-17.3-4.7-3.15-13.59-6.12-27.95-9.3-23.77-5.3-39.71-11-47.36-16.89-6.95-5.34-10.33-13.69-10.33-25.53,0-13.54,4.72-23.94,14.43-31.8,9.91-8,23.69-12.09,41-12.09,16,0,29.2,4.21,39.1,12.51,8.52,7.15,13.67,16.29,15.62,27.8H284.91a27.88,27.88,0,0,0-11.13-16.58c-6.81-5-15.64-7.52-26.24-7.52-9.41,0-17,2.21-22.58,6.56-6,4.66-9,11.16-9,19.32,0,4.64,1.76,11.08,10.13,15.45,5.23,2.77,15.65,5.87,31.84,9.46,21.64,4.85,36.11,10.36,43,16.38,6.39,5.5,9.62,14.79,9.62,27.63s-4.94,22.93-15.11,30.51C285,343.78,270.35,347.75,252,347.75Z"/><path class="cls-17" d="M178,170.6a4.2,4.2,0,0,0-3.31-1.64,7.05,7.05,0,0,0-4.17,1.45,5.63,5.63,0,0,0-2.34,2.84,3.34,3.34,0,0,0,.54,3,2.16,2.16,0,0,0,2.23.86,26.51,26.51,0,0,0,5.55-1.85c3.94-1.6,6.83-2.31,8.67-2.1s3.52,1.37,5,3.56a7.55,7.55,0,0,1,1,7q-1.24,3.74-5.68,6.82t-8.37,2.78a9.31,9.31,0,0,1-6.75-4l4.72-3.28a4.44,4.44,0,0,0,3.35,1.93,6.81,6.81,0,0,0,4.25-1.47,8.94,8.94,0,0,0,3.13-3.3,2.82,2.82,0,0,0-.15-3A2.61,2.61,0,0,0,183.5,179a16.39,16.39,0,0,0-4.85,1.45q-6.43,2.64-9.33,2.49t-5-3.17a8,8,0,0,1-1.29-7.13,12.55,12.55,0,0,1,5.28-6.64,11.76,11.76,0,0,1,7.85-2.39,9.49,9.49,0,0,1,6.63,3.69Z"/><path class="cls-17" d="M191.7,153.6l2.73-1.15,2.76-1.17,11.11,26.28-2.73,1.15-2.75,1.17Z"/><path class="cls-17" d="M217.88,174l-5.69-28,2.91-.59,2.93-.6,4.68,23,13.9-2.82.5,2.47.51,2.49Z"/><path class="cls-17" d="M245.59,140.85l3.16.2,3.16.2,4.9,22.14h0L264.4,142l3.06.19,3.08.2L259.1,170.28l-2.83-.17-2.82-.18Z"/><path class="cls-17" d="M276.54,172.75l9.35-27,19.84,6.89-.83,2.38-.83,2.4-14.21-4.93-2,5.72,13.18,4.58-.8,2.31-.81,2.33-13.18-4.58-2.44,7,14.83,5.15-.82,2.39-.84,2.4Z"/><path class="cls-17" d="M321.53,160.73l2.42,1.72,9.31,6.61a9.6,9.6,0,0,1,4.09,5.58,7.26,7.26,0,0,1-1.3,6.14c-1.58,2.23-3.5,3.33-5.74,3.3a7.81,7.81,0,0,1-1.86-.27,7.25,7.25,0,0,1,.51.93,5.41,5.41,0,0,1-.76,5.46l-2.59,3.89a5.67,5.67,0,0,0-.91,1.78,1.85,1.85,0,0,0,.25,1.32l-.44.62L319.14,194a6.91,6.91,0,0,1,.78-1.79,29.42,29.42,0,0,1,1.66-2.69l1.5-2.17a3.29,3.29,0,0,0,.66-2.89,6.19,6.19,0,0,0-2.49-2.77l-4.85-3.44-6.52,9.2-2.42-1.72L305,184Zm-2.35,13.61,5.63,4a5.4,5.4,0,0,0,3.37,1.24,3.47,3.47,0,0,0,2.59-1.65,3.51,3.51,0,0,0,.74-2.94,5,5,0,0,0-2.14-2.67l-5.82-4.13Z"/></g></g></svg>